/* XPM */
static char * font_demo_xpm[] = {
"80 150 2 1"
" 	c #000000",
".	c #ffffff",
"                                   ..                                           ",
"                 ..  ..            ..                     ..                    ",
"           ..    ..  ..          .....            ...     ..        ..    ..    ",
"          ....   ..  ..  .. ..  ..   ..          .. ..    ..       ..      ..   ",
"          ....    .  .   .. ..  ..    . ..    .  .. ..   ..       ..        ..  ",
"          ....          ....... ..      ..   ..   ...             ..        ..  ",
"           ..            .. ..   .....      ..   ... ..           ..        ..  ",
"           ..            .. ..       ..    ..   .. ...            ..        ..  ",
"           ..            .. ..       ..   ..    ..  ..            ..        ..  ",
"                        ....... .    ..  ..     ..  ..            ..        ..  ",
"           ..            .. ..  ..   .. ..   .. ..  ..             ..      ..   ",
"           ..            .. ..   .....  .    ..  ... ..             ..    ..    ",
"                                   ..                                           ",
"                                   ..                                           ",
"                                                                                ",
"                                                                                ",
"                                                                                ",
"                                                  ...      ..    .....   .....  ",
"                                                 .. ..    ...   ..   .. ..   .. ",
"                                              . ..   ..  ....        ..      .. ",
" ..  ..    ..                                .. ..   ..    ..       ..       .. ",
"  ....     ..                               ..  .. . ..    ..      ..     ....  ",
"........ ......         .......            ..   .. . ..    ..     ..         .. ",
"  ....     ..                             ..    ..   ..    ..    ..          .. ",
" ..  ..    ..      ..                    ..     ..   ..    ..   ..           .. ",
"                   ..              ..   ..       .. ..     ..   ..   .. ..   .. ",
"                   ..              ..   .         ...    ...... .......  .....  ",
"                  ..                                                            ",
"                                                                                ",
"                                                                                ",
"                                                                                ",
"                                                                                ",
"    ..  .......   ...   .......  .....   .....                                  ",
"   ...  ..       ..     ..   .. ..   .. ..   ..                      ..         ",
"  ....  ..      ..           .. ..   .. ..   ..    ..      ..       ..          ",
" .. ..  ..      ..           .. ..   .. ..   ..    ..      ..      ..    ...... ",
"..  ..  ......  ......      ..   .....   ......                   ..            ",
".......      .. ..   ..    ..   ..   ..      ..                  ..             ",
"    ..       .. ..   ..   ..    ..   ..      ..                   ..     ...... ",
"    ..       .. ..   ..   ..    ..   ..      ..    ..      ..      ..           ",
"    ..  ..   .. ..   ..   ..    ..   ..     ..     ..      ..       ..          ",
"   ....  .....   .....    ..     .....   ....             ..         ..         ",
"                                                                                ",
"                                                                                ",
"                                                                                ",
"                                                                                ",
"                                                                                ",
"         .....             .    ......    ....  .....   ....... .......   ....  ",
" ..     ..   ..  .....    ...    ..  ..  ..  ..  .. ..   ..  ..  ..  ..  ..  .. ",
"  ..    ..   .. ..   ..  .. ..   ..  .. ..    .  ..  ..  ..   .  ..   . ..    . ",
"   ..       ..  ..   .. ..   ..  ..  .. ..       ..  ..  .. .    .. .   ..      ",
"    ..     ..   .. .... ..   ..  .....  ..       ..  ..  ....    ....   ..      ",
"     ..    ..   .. .... .......  ..  .. ..       ..  ..  .. .    .. .   .. .... ",
"    ..     ..   .. .... ..   ..  ..  .. ..       ..  ..  ..      ..     ..   .. ",
"   ..           .. ...  ..   ..  ..  .. ..    .  ..  ..  ..   .  ..     ..   .. ",
"  ..       ..   ..      ..   ..  ..  ..  ..  ..  .. ..   ..  ..  ..      ..  .. ",
" ..        ..    .....  ..   .. ......    ....  .....   ....... ....      ... . ",
"                                                                                ",
"                                                                                ",
"                                                                                ",
"                                                                                ",
"                                                                                ",
"..   ..   ....     .... ...  .. ....    ..   .. ..   ..  .....  ......   .....  ",
"..   ..    ..       ..   ..  ..  ..     ... ... ...  .. ..   ..  ..  .. ..   .. ",
"..   ..    ..       ..   ..  ..  ..     ....... .... .. ..   ..  ..  .. ..   .. ",
"..   ..    ..       ..   .. ..   ..     ....... ....... ..   ..  ..  .. ..   .. ",
".......    ..       ..   ....    ..     .. . .. .. .... ..   ..  .....  ..   .. ",
"..   ..    ..       ..   ....    ..     ..   .. ..  ... ..   ..  ..     ..   .. ",
"..   ..    ..   ..  ..   .. ..   ..     ..   .. ..   .. ..   ..  ..     ..   .. ",
"..   ..    ..   ..  ..   ..  ..  ..   . ..   .. ..   .. ..   ..  ..     .. . .. ",
"..   ..    ..   ..  ..   ..  ..  ..  .. ..   .. ..   .. ..   ..  ..     .. .... ",
"..   ..   ....   ....   ...  .. ....... ..   .. ..   ..  .....  ....     .....  ",
"                                                                            ..  ",
"                                                                            ... ",
"                                                                                ",
"                                                                                ",
"                                                                                ",
"......   .....   ...... ..   .. ..   .. ..   .. ..   ..  ..  .. .......   ....  ",
" ..  .. ..   ..  ...... ..   .. ..   .. ..   .. ..   ..  ..  .. ..   ..   ..    ",
" ..  .. ..   ..  . .. . ..   .. ..   .. ..   ..  .. ..   ..  .. .    ..   ..    ",
" ..  ..  ..        ..   ..   .. ..   .. ..   ..  .....   ..  ..     ..    ..    ",
" .....    ...      ..   ..   .. ..   .. .. . ..   ...     ....     ..     ..    ",
" .. ..      ..     ..   ..   .. ..   .. .. . ..   ...      ..     ..      ..    ",
" ..  ..      ..    ..   ..   .. ..   .. .. . ..  .....     ..    ..       ..    ",
" ..  .. ..   ..    ..   ..   ..  .. ..  .......  .. ..     ..   ..    .   ..    ",
" ..  .. ..   ..    ..   ..   ..   ...   ... ... ..   ..    ..   ..   ..   ..    ",
"...  ..  .....    ....   .....     .     .. ..  ..   ..   ....  .......   ....  ",
"                                                                                ",
"                                                                                ",
"                                                                                ",
"                   .                                                            ",
"                  ...             ..                                            ",
"          ....   .. ..             ..           ...                ...          ",
".           ..  ..   ..             ..           ..                 ..          ",
"..          ..                                   ..                 ..          ",
"...         ..                           ....    ....    .....    ....   .....  ",
" ...        ..                              ..   .. ..  ..   ..  .. ..  ..   .. ",
"  ...       ..                           .....   ..  .. ..      ..  ..  ....... ",
"   ...      ..                          ..  ..   ..  .. ..      ..  ..  ..      ",
"    ...     ..                          ..  ..   ..  .. ..      ..  ..  ..      ",
"     ..     ..                          ..  ..   ..  .. ..   .. ..  ..  ..   .. ",
"      .   ....                           ... ..  .....   .....   ... ..  .....  ",
"                                                                                ",
"                        ........                                                ",
"                                                                                ",
"                                                                                ",
"                                                                                ",
"   ...          ...        ..        .. ...       ...                           ",
"  .. ..          ..        ..        ..  ..        ..                           ",
"  ..  .          ..                      ..        ..                           ",
"  ..     ... ..  .. ..    ...       ...  ..  ..    ..   ... ..  .. ...   .....  ",
" ....   ..  ..   ... ..    ..        ..  .. ..     ..   .......  ..  .. ..   .. ",
"  ..    ..  ..   ..  ..    ..        ..  ....      ..   .. . ..  ..  .. ..   .. ",
"  ..    ..  ..   ..  ..    ..        ..  ....      ..   .. . ..  ..  .. ..   .. ",
"  ..    ..  ..   ..  ..    ..        ..  .. ..     ..   .. . ..  ..  .. ..   .. ",
"  ..    ..  ..   ..  ..    ..        ..  ..  ..    ..   .. . ..  ..  .. ..   .. ",
" ....    .....  ...  ..   ....       .. ...  ..   ....  ..   ..  ..  ..  .....  ",
"            ..                   ..  ..                                         ",
"        ..  ..                   ..  ..                                         ",
"         ....                     ....                                          ",
"                                                                                ",
"                                                                                ",
"                                   .                                            ",
"                                  ..                                            ",
"                                  ..                                            ",
".. ...   ... .. .. ...   .....  ......  ..  ..  ..   .. ..   .. ..   .. ..   .. ",
" ..  .. ..  ..   ... .. ..   ..   ..    ..  ..  ..   .. ..   ..  .. ..  ..   .. ",
" ..  .. ..  ..   ..  ..  ..       ..    ..  ..  ..   .. .. . ..   ...   ..   .. ",
" ..  .. ..  ..   ..       ...     ..    ..  ..  ..   .. .. . ..   ...   ..   .. ",
" ..  .. ..  ..   ..         ..    ..    ..  ..  ..   .. .. . ..   ...   ..   .. ",
" ..  .. ..  ..   ..     ..   ..   .. .. ..  ..   .. ..  .......  .. ..  ..   .. ",
" .....   .....  ....     .....     ...   ... ..   ...    .. ..  ..   ..  ...... ",
" ..         ..                                                               .. ",
" ..         ..                                                              ..  ",
"....       ....                                                         .....   ",
"                                                                                ",
"                                 ... ..                                         ",
"            ...    ..    ...    .. ...                                          ",
"           ..      ..      ..                                                   ",
"           ..      ..      ..                                                   ",
".......    ..      ..      ..                                                   ",
"..  ..   ...       ..       ...                                                 ",
"   ..      ..      ..      ..                                                   ",
"  ..       ..      ..      ..                                                   ",
" ..        ..      ..      ..                                                   ",
"..   ..    ..      ..      ..                                                   ",
".......     ...    ..    ...                                                    ",
"                                                                                ",
"                                                                                ",
"                                                                                "};
